<?xml version="1.0" ?><svg height="100%" id="svg2" version="1.1" width="100%" xmlns="http://www.w3.org/2000/svg" xmlns:cc="http://creativecommons.org/ns#" xmlns:dc="http://purl.org/dc/elements/1.1/" xmlns:inkscape="http://www.inkscape.org/namespaces/inkscape" xmlns:rdf="http://www.w3.org/1999/02/22-rdf-syntax-ns#" xmlns:sodipodi="http://sodipodi.sourceforge.net/DTD/sodipodi-0.dtd" xmlns:svg="http://www.w3.org/2000/svg"><defs id="defs4"/><g id="layer1" transform="translate(0,-540.36218)"><path d="M 255.65625 40.15625 C 241.32689 40.18325 226.78659 41.6394 212.21875 44.65625 C 95.676057 68.79108 20.521418 183.23856 44.65625 299.78125 C 68.791082 416.32394 183.20731 491.47855 299.75 467.34375 L 293.65625 437.96875 C 192.98989 458.81575 94.878251 394.35386 74.03125 293.6875 C 53.184249 193.02114 117.64615 94.87825 218.3125 74.03125 C 318.97886 53.18425 417.0905 117.64614 437.9375 218.3125 C 446.65162 260.3914 440.51191 304.15126 420.625 342.15625 L 400.09375 330.28125 L 389.90625 428.96875 L 470.28125 370.8125 L 446.625 357.15625 C 470.18386 312.76505 477.51726 261.52695 467.3125 212.25 C 446.19452 110.27514 355.96179 39.96747 255.65625 40.15625 z " id="path3036" style="stroke:none" transform="translate(0,540.36218)"/><g id="g3016" transform="matrix(-1,0,0,1,502.69953,6.6120369e-6)"/></g></svg>
